<svg viewBox="0 0 24 24" fill="none" xmlns="http://www.w3.org/2000/svg">
  <path
    d="M21.08 21.87a1.85 1.85 0 0 1-1.83 1.03 20.36 20.36 0 0 1-12.27-5.9 20.6 20.6 0 0 1-5.88-12.32 1.86 1.86 0 0 1 1.03-1.84l3-1.53c1.16-.6 2.57.1 2.97 1.34a20.37 20.37 0 0 0 1.42 3.3c.45.82.14 1.89-.71 2.28a1.97 1.97 0 0 0-.58 3.18l4.31 4.33c.97.97 2.6.67 3.17-.58a1.76 1.76 0 0 1 2.41-.78 20.15 20.15 0 0 0 3.2 1.3c1.26.4 1.97 1.83 1.37 3l-1.61 3.19Z"
    stroke="#2D383F" stroke-linecap="round" stroke-linejoin="round" />
</svg>
