<svg viewBox="0 0 24 24" fill="none" xmlns="http://www.w3.org/2000/svg"><path d="M20.18 8.89c0-4.3-3.66-7.8-8.18-7.8s-8.18 3.5-8.18 7.8v.47a8 8 0 0 0 1.61 4.8l6.55 8.74h.04l6.55-8.74a8 8 0 0 0 1.61-4.8v-.47Z" stroke="#2D383F" stroke-linecap="round" stroke-linejoin="round"/><path d="M10.4 5.77a3.85 3.85 0 0 1 3.2 0 3.55 3.55 0 0 1 2 2.38 3.39 3.39 0 0 1-.72 2.97 3.76 3.76 0 0 1-2.88 1.33 3.76 3.76 0 0 1-2.88-1.33 3.39 3.39 0 0 1-.71-2.97 3.55 3.55 0 0 1 2-2.38Z" stroke="#2D383F" stroke-linecap="round" stroke-linejoin="round"/></svg>