<svg xmlns="http://www.w3.org/2000/svg" xmlns:xlink="http://www.w3.org/1999/xlink"><symbol id="sprite-advantages-boot" fill="none" viewBox="0 0 48 48"><path stroke="#0266C1" d="M.5.5h47v47h-47z"/><path fill="#0266C1" d="M34.6 27.54c.68-2.29.12-4.88-.47-6.68a16 16 0 0 0-.6-1.6.9.9 0 0 0 .48-.77v-3.47c0-.46-.35-.84-.78-.84h-9.51c-.22 0-.39.19-.4.42l.01.02c.13 2.5-.04 4.2-.53 5.4l-.03.04v.06q-.29.66-.75 1.18l-.03.02v.03q-.7.7-1.55 1.13-1.5.71-3.06 1.23l-.2.07c-3.62 1.29-4.1 3.63-4.09 4.8v3.04q0 .23.19.35 1.34.87 2.84 1.33c.21.06.42-.07.48-.3l.02-.12v-.1h.57v.42c0 .2.13.38.32.42q.52.09 1 .13a.4.4 0 0 0 .3-.1q.12-.14.12-.32v-.52h.57v.6c0 .22.18.4.39.4q.48.01 1-.04c.2-.02.36-.2.36-.42v-.54h.57v.37c0 .23.16.42.38.42h.06q1.08-.18 2.1-.55l.06-.02c2.71-1.67 4.43-.3 4.5-.24q.1.08.24.09h.48c.21 0 .39-.2.39-.42v-.7h.55v.69c0 .23.17.42.39.42h1.25c.21 0 .38-.19.38-.42v-.7h.58v.7c0 .23.17.42.38.42h.96c.21 0 .39-.19.39-.42v-4.5c0-.2-.13-.37-.31-.41m-9.2-12.52h7.82v3.46h-7.81v-3.46Zm-4.86 8.32v.02q.48.42.88.93a1 1 0 0 0-.1.41c-.01.44.32.8.73.8s.74-.35.74-.79c0-.41-.29-.76-.67-.8a6 6 0 0 0-.84-.98q.53-.32.98-.75.56.58 1.04 1.23c-.13.41.07.87.46 1.01.38.15.8-.07.94-.49.13-.41-.07-.87-.45-1.01l-.25-.05h-.1q-.5-.7-1.1-1.3.27-.36.48-.78.9.5 1.74 1.13c0 .44.33.8.74.8.41.01.75-.34.75-.79 0-.44-.32-.8-.74-.81a1 1 0 0 0-.34.08 17 17 0 0 0-1.82-1.16c.42-1.2.6-2.81.52-5h.5v3.45c0 .46.35.84.78.84h7.26q.16.34.46 1.1h-.16c-2.36.02-4.25 2.09-4.23 4.62a4.7 4.7 0 0 0 1.72 3.65c-3.14.89-7.85 1.94-11.82 1.67.73-3.15-.14-5.09-.71-5.94a25 25 0 0 0 2.6-1.1Zm-3.39 1.33c.42.53 1.51 2.3.71 5.58a9 9 0 0 1-3.97-1.29l-.03-.29v-.03c-.03-.89.28-2.8 3.3-3.97Zm16.8 7.36v-.7c0-.22-.17-.41-.39-.41h-1.34c-.21 0-.39.19-.39.42v.7h-.47v-.7a.4.4 0 0 0-.4-.42h-1.33c-.21 0-.39.19-.39.42v.68c-.52-.36-2.45-1.39-5.18.26q-.72.25-1.48.41v-.29a.4.4 0 0 0-.39-.41h-1.34c-.21 0-.38.18-.38.41v.58h-.2v-.59c0-.23-.17-.42-.39-.42h-1.34c-.22 0-.39.2-.39.42v.5l-.2-.03v-.47c0-.23-.17-.42-.38-.42h-1.35c-.2 0-.36.16-.39.37a10 10 0 0 1-1.97-.95v-1.5c1.69.97 3.87 1.33 6.2 1.33 6.17 0 13.24-2.54 14.07-2.85v3.66zm-.19-4.4c-.33.12-1.14.42-2.26.74a3.9 3.9 0 0 1-1.62-5.01 3.5 3.5 0 0 1 3.54-2.1v.02c.58 1.77 1.09 4.29.34 6.35"/><path fill="#0266C1" d="M26.9 15.53c-.62 0-1.13.54-1.13 1.21s.5 1.21 1.13 1.22c.62 0 1.13-.55 1.13-1.22s-.51-1.21-1.13-1.21m0 1.6c-.2 0-.35-.18-.35-.39 0-.2.15-.38.35-.38s.35.17.35.38-.16.38-.35.38Z"/></symbol><use xlink:href="#sprite-advantages-boot" width="48" height="48"/><view id="sprite-advantages-boot-view" viewBox="0 0 48 48"/><symbol id="sprite-advantages-crown" fill="none" viewBox="0 0 48 48"><path stroke="#0266C1" d="M.5.5h47v47h-47z"/><path stroke="#0266C1" d="M31.3 33.82h-14.6m18.2-14.06-3.18 10.57h-15.44l-3.19-10.57 6.3 3.82 4.61-9.4 4.61 9.4z"/></symbol><use xlink:href="#sprite-advantages-crown" width="48" height="48" y="48"/><view id="sprite-advantages-crown-view" viewBox="0 48 48 48"/><symbol id="sprite-advantages-flower" fill="none" viewBox="0 0 48 48"><path stroke="#0266C1" d="M.5.5h47v47h-47z"/><path stroke="#0266C1" stroke-linecap="round" stroke-linejoin="round" d="M23.66 29.72a10.6 10.6 0 0 0-5.9-7.14 11 11 0 0 0-4.67-1.04c.1 2.21.91 4.36 2.37 6.13a11 11 0 0 0 8.47 3.97q-.04-.96-.27-1.92m0 0c-.6-2.56-2.18-4.8-4.38-6.28l.13-.66a10.5 10.5 0 0 1 4.59-6.42 10.5 10.5 0 0 1 4.72 7.08 10.5 10.5 0 0 0-4.38 6.28m-.68 0q.23.96.27 1.92h.13q1.4 0 2.71-.33l.02-.02q-1.33.33-2.72.35m.27-1.92a10.6 10.6 0 0 1 5.9-7.14 11 11 0 0 1 4.67-1.04 10.3 10.3 0 0 1-2.37 6.13 11 11 0 0 1-8.47 3.97m.27-1.92q-.22.96-.27 1.92"/></symbol><use xlink:href="#sprite-advantages-flower" width="48" height="48" y="96"/><view id="sprite-advantages-flower-view" viewBox="0 96 48 48"/><symbol id="sprite-advantages-route" fill="none" viewBox="0 0 48 48"><path stroke="#0266C1" d="M.5.5h47v47h-47z"/><g clip-path="url(#a)"><path stroke="#0266C1" stroke-linecap="round" d="M31.8 21.56h-5.85a3.3 3.3 0 0 0-3.31 3.34 3.3 3.3 0 0 0 3.3 3.34h2.54a3.3 3.3 0 0 1 3.31 3.33 3.3 3.3 0 0 1-3.31 3.34h-12.27m3.11-5.53c0-1.74-1.4-3.14-3.11-3.14a3.13 3.13 0 0 0-3.12 3.14v.12c0 .68.22 1.36.62 1.91l2.5 3.45s0 0 0 0l2.5-3.45c.4-.55.61-1.23.61-1.91zm-2.51-1.3.02.01a1.37 1.37 0 0 1 .47 2.12 1.4 1.4 0 0 1-1.08.52h-.03a1.4 1.4 0 0 1-.6-2.64h.02a1.4 1.4 0 0 1 1.2 0Zm18.1-11.83c0-1.73-1.4-3.16-3.12-3.16a3.15 3.15 0 0 0-3.11 3.16c0 .68.21 1.36.62 1.9l2.49 3.37s0 0 0 0l2.5-3.37c.4-.54.62-1.22.62-1.9Zm-2.52-1.36.04.02a1.33 1.33 0 0 1 .46 2.06l-.01.02c-.26.3-.65.49-1.05.49h-.07c-.41 0-.8-.18-1.05-.5l-.02-.01a1.34 1.34 0 0 1 .47-2.06l.04-.02a1.4 1.4 0 0 1 1.19 0Z"/></g><defs><clipPath id="a"><path fill="#fff" d="M12 12h24v24h-24z"/></clipPath></defs></symbol><use xlink:href="#sprite-advantages-route" width="48" height="48" y="144"/><view id="sprite-advantages-route-view" viewBox="0 144 48 48"/><symbol id="sprite-advantages-shield" fill="none" viewBox="0 0 48 48"><path stroke="#0266C1" d="M.5.5h47v47h-47z"/><path stroke="#0266C1" d="m21.55 23.9 2.45 2.45 4.3-4.28m-4.3-8.98a18 18 0 0 1-9.4 1.95 17.96 17.96 0 0 0 9.4 19.87 18 18 0 0 0 9.54-12.9c.42-2.33.36-4.7-.14-6.97a18 18 0 0 1-9.4-1.95Z"/></symbol><use xlink:href="#sprite-advantages-shield" width="48" height="48" y="192"/><view id="sprite-advantages-shield-view" viewBox="0 192 48 48"/><symbol id="sprite-arrow" fill="none" viewBox="0 0 9 14"><path stroke="#2D383F" stroke-width="2" d="m1 13 6-6-6-6"/></symbol><use xlink:href="#sprite-arrow" width="9" height="14" y="240"/><view id="sprite-arrow-view" viewBox="0 240 9 14"/><symbol id="sprite-cross" fill="#fff" viewBox="0 0 20 20"><path stroke="#FFf" stroke-width="2" d="m1 1 9 9m9 9-9-9m0 0 9-9-18 18"/></symbol><use xlink:href="#sprite-cross" width="20" height="20" y="254"/><view id="sprite-cross-view" viewBox="0 254 20 20"/><symbol id="sprite-day" fill="none" viewBox="0 0 20 20"><path fill="#fff" d="M13.54 6.46a5 5 0 0 0-3.54-1.49 5.04 5.04 0 0 0-5.03 5.03 5.04 5.04 0 0 0 8.57 3.54 4.93 4.93 0 0 0 0-7.09Zm-.95 6.13a3.7 3.7 0 0 1-2.59 1.06c-1 0-1.93-.4-2.6-1.06a3.7 3.7 0 0 1-1.05-2.59c0-1 .4-1.93 1.06-2.6a3.7 3.7 0 0 1 2.59-1.05c1 0 1.93.4 2.6 1.06a3.7 3.7 0 0 1 1.05 2.59c0 1-.4 1.93-1.06 2.6Zm6.72-3.28h-2.03a.7.7 0 0 0-.7.69c0 .37.32.69.7.69h2.03a.7.7 0 0 0 .69-.69.7.7 0 0 0-.69-.69m-9.31 7.28a.7.7 0 0 0-.69.69v2.03c0 .37.32.69.69.69a.7.7 0 0 0 .69-.69v-2.03a.7.7 0 0 0-.69-.7Zm7.06-.48-1.45-1.45c-.24-.27-.69-.27-.95 0a.67.67 0 0 0 0 .95l1.45 1.45c.27.27.69.27.95 0a.67.67 0 0 0 0-.95m-7.06-16.11a.7.7 0 0 0-.69.69v2.03c0 .38.32.7.69.7a.7.7 0 0 0 .69-.7v-2.03a.7.7 0 0 0-.69-.69m7.09 2.94a.67.67 0 0 0-.95 0l-1.46 1.45a.67.67 0 0 0 0 .95c.24.27.69.27.95 0l1.46-1.45a.67.67 0 0 0 0-.95m-14.37 6.37h-2.03a.7.7 0 0 0-.69.69c0 .37.3.69.69.69h2.03a.7.7 0 0 0 .7-.69.7.7 0 0 0-.7-.69m2.6 5.35c-.24-.27-.69-.27-.95 0l-1.46 1.45a.67.67 0 0 0 0 .95c.26.27.69.27.95 0l1.46-1.45a.67.67 0 0 0 0-.95m0-10.26-1.46-1.46a.67.67 0 0 0-.95 0 .67.67 0 0 0 0 .95l1.46 1.45c.26.27.68.27.95 0a.67.67 0 0 0 0-.95Z"/></symbol><use xlink:href="#sprite-day" width="20" height="20" y="274"/><view id="sprite-day-view" viewBox="0 274 20 20"/><symbol id="sprite-left" fill="none" viewBox="0 0 14 9"><path fill="#1C3374" d="M.65 4.85a.5.5 0 0 1 0-.7l3.18-3.19a.5.5 0 1 1 .7.71l-2.82 2.83 2.83 2.83a.5.5 0 1 1-.71.7zm13.35.15h-13v-1h13z"/></symbol><use xlink:href="#sprite-left" width="14" height="9" y="294"/><view id="sprite-left-view" viewBox="0 294 14 9"/><symbol id="sprite-level" fill="none" viewBox="0 0 12 12"><path stroke="#fff" stroke-linecap="round" stroke-miterlimit="16" d="M10.9 11.46h-1.95v-10.92h1.96zm-3.92 0v-7.94h-1.96v7.93zm-3.93 0v-4.97h-1.96v4.97z"/></symbol><use xlink:href="#sprite-level" width="12" height="12" y="303"/><view id="sprite-level-view" viewBox="0 303 12 12"/><symbol id="sprite-logo" fill="none" viewBox="0 0 410 404"><path fill="url(#a)" d="m399.64 59.53-184 329.02a10 10 0 0 1-17.41.07l-187.65-329.06a10 10 0 0 1 10.45-14.8l184.2 32.92a10 10 0 0 0 3.55 0l180.34-32.87a10 10 0 0 1 10.52 14.72"/><path fill="url(#b)" d="m292.96 1.57-136.16 26.69a5 5 0 0 0-4.03 4.6l-8.38 141.47a5 5 0 0 0 6.12 5.17l37.91-8.75a5 5 0 0 1 6.02 5.87l-11.26 55.15a5 5 0 0 0 6.35 5.79l23.42-7.11a5 5 0 0 1 6.35 5.8l-17.9 86.62c-1.12 5.42 6.09 8.38 9.1 3.73l2-3.1 110.95-221.43a5 5 0 0 0-5.41-7.15l-39.03 7.53a5 5 0 0 1-5.75-6.3l25.47-88.28a5 5 0 0 0-5.77-6.3"/><defs><linearGradient id="a" x1="6" x2="235" y1="33" y2="344" gradientUnits="userSpaceOnUse"><stop stop-color="#41D1FF"/><stop offset="1" stop-color="#BD34FE"/></linearGradient><linearGradient id="b" x1="194.651" x2="236.076" y1="8.818" y2="292.989" gradientUnits="userSpaceOnUse"><stop stop-color="#FFEA83"/><stop offset=".083" stop-color="#FFDD35"/><stop offset="1" stop-color="#FFA800"/></linearGradient></defs></symbol><use xlink:href="#sprite-logo" width="410" height="404" y="315"/><view id="sprite-logo-view" viewBox="0 315 410 404"/><symbol id="sprite-mail" fill="none" viewBox="0 0 24 18"><path stroke="#2D383F" stroke-linecap="round" stroke-linejoin="round" d="M22.9 3.06v11.88c0 .94-.69 1.7-1.55 1.7h-18.7c-.86 0-1.56-.76-1.56-1.7v-11.88m21.82 0c0-.94-.7-1.7-1.56-1.7h-18.7c-.86 0-1.56.76-1.56 1.7m21.82 0-8.88 8.29a2.93 2.93 0 0 1-4.06 0l-8.88-8.29"/></symbol><use xlink:href="#sprite-mail" width="24" height="18" y="719"/><view id="sprite-mail-view" viewBox="0 719 24 18"/><symbol id="sprite-menu" fill="#fff" viewBox="0 0 22 16"><path d="M0 0h22v1.84h-22zm0 14.16h22v1.84h-22zm0-7.08h14.08v1.84h-14.08z"/></symbol><use xlink:href="#sprite-menu" width="22" height="16" y="737"/><view id="sprite-menu-view" viewBox="0 737 22 16"/><symbol id="sprite-moon" fill="none" viewBox="0 0 12 12"><path fill="#fff" d="M11.2 6.75a.4.4 0 0 0-.32.07 4.09 4.09 0 0 1-6.75-3.13 3.8 3.8 0 0 1 .89-2.56.36.36 0 0 0-.06-.5.4.4 0 0 0-.32-.07 5.55 5.55 0 0 0 1.42 10.9 5.5 5.5 0 0 0 5.37-4.26.34.34 0 0 0-.23-.45m-2.14 2.93a4.75 4.75 0 0 1-6.35-.38 4.8 4.8 0 0 1 1.18-7.67l-.2.48a4.84 4.84 0 0 0 4.54 6.42 4.6 4.6 0 0 0 2.2-.52q-.5.99-1.37 1.67"/></symbol><use xlink:href="#sprite-moon" width="12" height="12" y="753"/><view id="sprite-moon-view" viewBox="0 753 12 12"/><symbol id="sprite-ok" fill="none" viewBox="0 0 9 16"><path fill="#2D383F" d="M4.5 2.42c.92 0 1.66.77 1.66 1.71s-.74 1.7-1.66 1.7-1.66-.76-1.66-1.7.74-1.71 1.66-1.71m0 5.84a4.1 4.1 0 0 0 4.01-4.13c0-2.28-1.8-4.13-4.01-4.13s-4 1.85-4 4.13 1.79 4.13 4 4.13m1.62 3.37a8 8 0 0 0 2.33-1c.55-.35.71-1.1.37-1.66a1.15 1.15 0 0 0-1.62-.39 5 5 0 0 1-5.4 0 1.15 1.15 0 0 0-1.62.39c-.34.56-.18 1.3.37 1.66q1.1.7 2.33 1l-2.24 2.3a1.24 1.24 0 0 0 0 1.71 1.16 1.16 0 0 0 1.66 0l2.2-2.26 2.2 2.26c.46.48 1.2.48 1.66 0 .46-.47.46-1.23 0-1.7z"/></symbol><use xlink:href="#sprite-ok" width="9" height="16" y="765"/><view id="sprite-ok-view" viewBox="0 765 9 16"/><symbol id="sprite-phone" fill="none" viewBox="0 0 24 24"><path stroke="#2D383F" stroke-linecap="round" stroke-linejoin="round" d="M21.08 21.87a1.85 1.85 0 0 1-1.83 1.03 20.4 20.4 0 0 1-12.27-5.9 20.6 20.6 0 0 1-5.88-12.32 1.9 1.9 0 0 1 1.03-1.84l3-1.53c1.16-.6 2.57.1 2.97 1.34a20 20 0 0 0 1.42 3.3c.45.82.14 1.89-.71 2.28a1.97 1.97 0 0 0-.58 3.18l4.31 4.33c.97.97 2.6.67 3.17-.58a1.76 1.76 0 0 1 2.41-.78 20 20 0 0 0 3.2 1.3c1.26.4 1.97 1.83 1.37 3z"/></symbol><use xlink:href="#sprite-phone" width="24" height="24" y="781"/><view id="sprite-phone-view" viewBox="0 781 24 24"/><symbol id="sprite-pin" fill="none" viewBox="0 0 24 24"><path stroke="#2D383F" stroke-linecap="round" stroke-linejoin="round" d="M20.18 8.89c0-4.3-3.66-7.8-8.18-7.8s-8.18 3.5-8.18 7.8v.47a8 8 0 0 0 1.61 4.8l6.55 8.74h.04l6.55-8.74a8 8 0 0 0 1.61-4.8z"/><path stroke="#2D383F" stroke-linecap="round" stroke-linejoin="round" d="M10.4 5.77a4 4 0 0 1 3.2 0 3.6 3.6 0 0 1 2 2.38 3.4 3.4 0 0 1-.72 2.97 3.8 3.8 0 0 1-2.88 1.33 3.8 3.8 0 0 1-2.88-1.33 3.4 3.4 0 0 1-.71-2.97 3.6 3.6 0 0 1 2-2.38Z"/></symbol><use xlink:href="#sprite-pin" width="24" height="24" y="805"/><view id="sprite-pin-view" viewBox="0 805 24 24"/><symbol id="sprite-process-boot" fill="none" viewBox="0 0 26 21"><path fill="#2D383F" d="M24.98 14.27c.77-2.44.14-5.2-.54-7.11a17 17 0 0 0-.7-1.7.9.9 0 0 0 .56-.83v-3.7c0-.48-.4-.88-.88-.88h-10.91a.44.44 0 0 0-.44.47c.15 2.66-.05 4.47-.61 5.74l-.03.04v.07q-.33.7-.86 1.26l-.04.02v.03q-.8.75-1.78 1.2-1.71.75-3.5 1.3l-.23.08c-4.15 1.38-4.7 3.87-4.69 5.12v3.23c0 .15.09.3.22.37a13 13 0 0 0 3.26 1.42.44.44 0 0 0 .56-.45v-.1h.66v.44c0 .22.15.41.37.45q.58.09 1.15.14a.44.44 0 0 0 .48-.44v-.56h.65v.63c0 .24.2.44.44.44q.56.01 1.15-.05c.23-.02.4-.21.4-.45v-.57h.66v.39a.44.44 0 0 0 .52.44 16 16 0 0 0 2.4-.57l.07-.03c3.1-1.78 5.08-.32 5.16-.26q.11.1.27.1h.55c.24 0 .44-.2.44-.45v-.75h.63v.74c0 .25.2.45.45.45h1.43c.24 0 .44-.2.44-.45v-.74h.66v.74c0 .25.2.45.44.45h1.1c.24 0 .44-.2.44-.45v-4.78c0-.21-.14-.4-.35-.44m-10.54-13.32h8.95v3.67h-8.95zm-5.57 8.85v.02q.54.45 1 .98a1 1 0 0 0-.12.45.85.85 0 1 0 .93-.84q-.42-.58-.96-1.05.6-.35 1.12-.8.64.62 1.2 1.3a.85.85 0 1 0 .79-.56h-.1q-.6-.74-1.28-1.38.32-.39.56-.84 1.03.54 2 1.2a.86.86 0 1 0 .47-.76q-1-.67-2.1-1.23c.49-1.29.7-3 .6-5.33h.58v3.68c0 .49.4.89.89.89h8.32q.18.36.52 1.17h-.18a4.88 4.88 0 0 0-2.88 8.8c-3.59.95-8.99 2.07-13.54 1.78.84-3.35-.16-5.42-.81-6.32q1.52-.5 2.99-1.16m-3.88 1.41c.48.57 1.73 2.46.8 5.95q-2.42-.2-4.55-1.38l-.03-.3v-.04c-.03-.94.32-2.99 3.78-4.23m19.25 7.84v-.74c0-.25-.2-.44-.45-.44h-1.54c-.24 0-.44.2-.44.44v.74h-.55v-.74c0-.25-.2-.44-.44-.44h-1.53c-.25 0-.45.2-.45.44v.72c-.6-.37-2.8-1.47-5.94.28q-.83.27-1.7.44v-.3c0-.25-.2-.45-.44-.45h-1.53c-.25 0-.44.2-.44.45v.6h-.23v-.62c0-.24-.2-.44-.44-.44h-1.54c-.25 0-.45.2-.45.44v.53l-.23-.03v-.5c0-.24-.2-.44-.44-.44h-1.54a.44.44 0 0 0-.44.39q-1.2-.39-2.27-1.02v-1.59c1.94 1.03 4.44 1.42 7.1 1.42 7.08 0 15.18-2.71 16.13-3.04v3.9zm-.22-4.68c-.38.12-1.3.44-2.59.78a4 4 0 0 1 2.2-7.56v.01c.66 1.89 1.25 4.57.39 6.77"/><path fill="#2D383F" d="M16.15 1.48a1.3 1.3 0 1 0 0 2.59 1.3 1.3 0 0 0 0-2.59m0 1.7a.4.4 0 1 1 0-.8.4.4 0 0 1 0 .8"/></symbol><use xlink:href="#sprite-process-boot" width="26" height="21" y="829"/><view id="sprite-process-boot-view" viewBox="0 829 26 21"/><symbol id="sprite-process-map" fill="none" viewBox="0 0 25 25"><path fill="#2D383F" d="M24.17 22.28v-15.58a.46.46 0 0 0-.6-.46v.02l-2.09.65q.33-.88.39-1.82a5.1 5.1 0 0 0-10.19 0q.05.9.36 1.74l-3.45-1.23h-.16l-.16.03-7.14 2.78a.5.5 0 0 0-.3.39v15.6a.46.46 0 0 0 .63.43l6.98-2.7 7.97 2.85q.15.05.3 0l7.14-2.24c.2-.06.33-.25.32-.46m-7.4-21.35c2.3 0 4.17 1.86 4.17 4.16 0 1.82-2.72 6.82-4.17 9.27-1.45-2.47-4.16-7.48-4.16-9.27 0-2.3 1.86-4.16 4.16-4.16m6.49 21.03-6.24 1.95v-3.53a.46.46 0 0 0-.92 0v3.5l-7.2-2.58v-2.96a.46.46 0 0 0-.92 0v2.96l-6.22 2.43v-7.16l2.28-.93a.46.46 0 1 0-.34-.86l-1.94.79v-6.45l6.22-2.41v1.39a.46.46 0 0 0 .92 0v-1.4l3.55 1.27a64 64 0 0 0 3.93 7.55.46.46 0 0 0 .79 0 65 65 0 0 0 3.9-7.5l2.17-.69.02 7.6-2.35.56a.47.47 0 1 0 .11.93h.11l2.13-.52z"/><path fill="#2D383F" d="M16.76 2.4a2.7 2.7 0 1 0 0 5.38 2.7 2.7 0 0 0 0-5.38m0 4.46a1.77 1.77 0 0 1-1.75-1.77h-.02a1.76 1.76 0 1 1 1.77 1.77m-6.06 7.11-2.24-.97a.5.5 0 0 0-.36 0l-1.9.77a.46.46 0 1 0 .35.86l1.72-.7 2.06.88.18.04a.46.46 0 0 0 .19-.9Zm7.57 2.65a.46.46 0 0 0-.52-.32v-.04l-1.15.28-1.94-.85a.46.46 0 0 0-.37.86l2.08.92a.4.4 0 0 0 .19.04h.1l1.3-.31a.46.46 0 0 0 .31-.58"/></symbol><use xlink:href="#sprite-process-map" width="25" height="25" y="850"/><view id="sprite-process-map-view" viewBox="0 850 25 25"/><symbol id="sprite-process-mountain" fill="none" viewBox="0 0 25 25"><g fill="#2D383F" clip-path="url(#a)"><path d="m23.42 24.19-7.86-18.28a.48.48 0 0 0-.88 0l-4.74 11-2.93-6.75a.48.48 0 0 0-.88 0l-2.75 6.36-3.34 7.66a.48.48 0 0 0 .44.67h22.5a.48.48 0 0 0 .43-.66m-8.3-16.9 3.1 7.2h-1.09l-1.96-2.16a.48.48 0 0 0-.76.06l-.73 1.13h-1.23zm-8.54 4.24 2.45 5.66h-1.34a.5.5 0 0 0-.4.22l-.48.76-1.23-1.74a.5.5 0 0 0-.39-.2h-.63zm-5.34 12.37 2.9-6.72h.8l1.5 2.12a.5.5 0 0 0 .38.2.5.5 0 0 0 .4-.21l.73-1.14h1.49l2.48 5.73zm11.73 0-2.5-5.77 1.57-3.65h1.9a.5.5 0 0 0 .4-.22l.54-.82 1.68 1.87q.15.15.36.15h1.7l3.64 8.45zm-5.35-21.82a2.25 2.25 0 0 0-4.35.8v.26a2.25 2.25 0 0 0 .9 4.29l.03.02h3.34a2.68 2.68 0 1 0 .08-5.37m-.05 4.43h-3.34a1.3 1.3 0 1 1-.27-2.59.5.5 0 0 0 .36-.62 1.3 1.3 0 1 1 2.5-.64c.05.25.28.42.53.39h.22a1.73 1.73 0 0 1 0 3.46m16.14-3.87v-.25a2.25 2.25 0 0 0-4.35-.82 2.68 2.68 0 0 0 .1 5.36h3.34a2.25 2.25 0 0 0 .9-4.29m.37 2.3a1.3 1.3 0 0 1-1.26 1.03h-3.34a1.73 1.73 0 1 1 0-3.45h.22a.5.5 0 0 0 .51-.38 1.3 1.3 0 1 1 2.51.65.5.5 0 0 0 .36.62c.7.15 1.14.84 1 1.54"/></g><defs><clipPath id="a"><path fill="#fff" d="M0 0h25v25h-25z"/></clipPath></defs></symbol><use xlink:href="#sprite-process-mountain" width="25" height="25" y="875"/><view id="sprite-process-mountain-view" viewBox="0 875 25 25"/><symbol id="sprite-process-pine" fill="none" viewBox="0 0 25 25"><path fill="#2D383F" d="m24.6 18.08-4.92-5.61h2.38a.5.5 0 0 0 .4-.8l-3.95-5.19h2a.5.5 0 0 0 .38-.83l-4.82-5.48a.5.5 0 0 0-.75 0l-4.83 5.48a.5.5 0 0 0 .38.83h2.03l-1.22 1.59-3.24-3.7a.5.5 0 0 0-.76 0l-4.12 4.69a.5.5 0 0 0 .38.83h1.58l-3.3 4.32a.5.5 0 0 0 .4.8h1.86l-4.08 4.68a.5.5 0 0 0 .38.83h5.54v3.5c0 .54.44.98.97.98h1.53a.97.97 0 0 0 .98-.97v-3.51h4.16v3.5c0 .55.44.98.97.98h1.53a.97.97 0 0 0 .97-.97v-5.11h6.79a.5.5 0 0 0 .37-.84m-15.8 5.92-1.47.03-.03-3.51h1.5zm5.17-4.48h-12.08l4.1-4.68a.5.5 0 0 0-.39-.84h-1.95l3.3-4.31a.5.5 0 0 0-.4-.8h-1.5l3-3.43 3.01 3.41-2.11 2.8a.5.5 0 0 0 .4.8h2.37l-4.9 5.62a.5.5 0 0 0 .37.83h6.78zm2.47 4.47-1.47.04-.03-5.11h1.5zm.03-6.08h-8.18l4.9-5.61a.5.5 0 0 0-.37-.83h-2.46l3.96-5.18a.5.5 0 0 0-.4-.8h-1.91l3.72-4.23 3.7 4.22h-1.94a.5.5 0 0 0-.4.81l3.94 5.18h-2.44a.5.5 0 0 0-.38.83l4.9 5.61z"/></symbol><use xlink:href="#sprite-process-pine" width="25" height="25" y="900"/><view id="sprite-process-pine-view" viewBox="0 900 25 25"/><symbol id="sprite-reddit" fill="none" viewBox="0 0 14 15"><path fill="#2D383F" d="M8.36 0c-.45 0-.87.24-1.14.6-.27.35-.42.78-.53 1.23-.17.73-.22 1.53-.23 2.26-1.27.09-2.4.49-3.36 1.1a2 2 0 0 0-1.3-.53c-.5.01-.98.24-1.34.72-.68.92-.6 2.42.2 3.31q-.1.42-.1.84c0 3.02 2.89 5.47 6.44 5.47s6.43-2.45 6.43-5.47q0-.42-.08-.84c.79-.89.87-2.39.19-3.3a1.7 1.7 0 0 0-1.35-.73c-.44 0-.9.2-1.3.54a7 7 0 0 0-3.33-1.11c.02-.67.06-1.37.19-1.9a2 2 0 0 1 .27-.69c.1-.13.17-.18.34-.18.37 0 .41.12.63.43q.15.23.44.53a1 1 0 0 0 .84.35v-1.31c-.1 0-.11 0-.17-.07q-.09-.1-.27-.37c-.26-.35-.74-.88-1.47-.88m3.54.12c-.84 0-1.53.83-1.53 1.85s.69 1.85 1.53 1.85 1.53-.83 1.53-1.85-.68-1.85-1.53-1.85m0 .66c.55 0 .99.54.99 1.2s-.44 1.18-.99 1.18c-.54 0-.99-.53-.99-1.19s.45-1.19 1-1.19Zm-4.9 4.34c3.01 0 5.57 2.02 5.57 4.41s-2.56 4.42-5.57 4.42-5.57-2.02-5.57-4.42 2.56-4.41 5.57-4.41m-5.17.6q.22 0 .46.12a5 5 0 0 0-1.28 1.72c-.2-.5-.15-1.14.1-1.48a.9.9 0 0 1 .72-.37Zm10.34 0q.43 0 .72.36c.25.34.3.97.1 1.48a5 5 0 0 0-1.28-1.72q.24-.12.46-.13Zm-7.35 1.64c-.54 0-.99.53-.99 1.19s.45 1.19 1 1.19c.54 0 .98-.53.98-1.2 0-.65-.44-1.18-.99-1.18m4.36 0c-.55 0-.99.53-.99 1.19s.44 1.19.99 1.19c.54 0 .99-.53.99-1.2 0-.65-.45-1.18-1-1.18Zm-4.89 4.04a3 3 0 0 0 2.71 1.71 3 3 0 0 0 2.72-1.7c-.63.48-1.62.82-2.72.82s-2.08-.34-2.7-.83Z"/></symbol><use xlink:href="#sprite-reddit" width="14" height="15" y="925"/><view id="sprite-reddit-view" viewBox="0 925 14 15"/><symbol id="sprite-star-fill" fill="none" viewBox="0 0 16 16"><path fill="#fff" d="m7.63 11.7 4.72 2.6-1.25-4.92 4.17-3.3-5.5-.44-2.14-4.64-2.14 4.64-5.49.43 4.16 3.31-1.24 4.92z"/></symbol><use xlink:href="#sprite-star-fill" width="16" height="16" y="940"/><view id="sprite-star-fill-view" viewBox="0 940 16 16"/><symbol id="sprite-star" fill="none" viewBox="0 0 16 14"><path fill="#fff" fill-rule="evenodd" d="m7.63 9.55 3.19 1.76-.84-3.31 2.68-2.13-3.54-.28-1.49-3.2-1.48 3.2-3.54.28 2.68 2.13-.84 3.3zm-4.71 3.75 1.24-4.92-4.16-3.3 5.49-.44 2.14-4.64 2.15 4.64 5.49.43-4.17 3.31 1.25 4.92-4.72-2.6z" clip-rule="evenodd"/></symbol><use xlink:href="#sprite-star" width="16" height="14" y="956"/><view id="sprite-star-view" viewBox="0 956 16 14"/><symbol id="sprite-tours-pin" fill="none" viewBox="0 0 9 12"><path fill="#fff" d="M4.5 0a4.46 4.46 0 0 0-4.5 4.42q0 .95.4 1.8a28 28 0 0 0 3.91 5.7.25.25 0 0 0 .38 0c.63-.73 2.8-3.28 3.92-5.7q.39-.85.39-1.8a4.47 4.47 0 0 0-4.5-4.42m0 6.71a2.3 2.3 0 0 1-2.34-2.3 2.3 2.3 0 0 1 2.34-2.29 2.3 2.3 0 0 1 2.34 2.3c0 1.26-1.05 2.3-2.34 2.3Z"/></symbol><use xlink:href="#sprite-tours-pin" width="9" height="12" y="970"/><view id="sprite-tours-pin-view" viewBox="0 970 9 12"/><symbol id="sprite-user" fill="none" viewBox="0 0 18 20"><path stroke="#163152" stroke-linecap="square" stroke-linejoin="round" d="M15.67 19h-13.34c-.73 0-1.33-.55-1.33-1.23a4.9 4.9 0 0 1 3.43-4.58l.41-.14a12.8 12.8 0 0 1 8.32 0l.4.14a4.9 4.9 0 0 1 3.44 4.58c0 .68-.6 1.23-1.33 1.23Zm-8.7-9.6a4.8 4.8 0 0 0 4.06 0 4.2 4.2 0 0 0 2.32-2.8l.08-.31a4.1 4.1 0 0 0-.84-3.54l-.12-.14c-.82-1.01-2.1-1.61-3.47-1.61s-2.65.6-3.47 1.6l-.12.15a4.1 4.1 0 0 0-.84 3.54l.08.32a4.2 4.2 0 0 0 2.32 2.8Z"/></symbol><use xlink:href="#sprite-user" width="18" height="20" y="982"/><view id="sprite-user-view" viewBox="0 982 18 20"/><symbol id="sprite-vk" fill="none" viewBox="0 0 16 9"><path fill="#2D383F" d="M15.86 8.03c-.05-.07-.31-.64-1.6-1.81-1.33-1.23-1.15-1.03.46-3.15.99-1.3 1.38-2.08 1.26-2.42-.12-.32-.84-.24-.84-.24l-2.4.02s-.19-.03-.32.05-.21.26-.21.26-.38 1-.9 1.85c-1.06 1.79-1.5 1.88-1.67 1.77-.4-.26-.3-1.04-.3-1.6 0-1.74.27-2.46-.52-2.65-.26-.06-.46-.1-1.13-.1-.85-.02-1.58 0-2 .2-.27.13-.48.42-.35.44.16.02.52.1.71.35.25.33.24 1.07.24 1.07s.14 2.05-.33 2.3c-.33.18-.77-.18-1.73-1.8-.48-.84-.85-1.76-.85-1.76s-.08-.17-.2-.26a1 1 0 0 0-.37-.15l-2.29.01s-.34.01-.47.16c-.11.13 0 .4 0 .4s1.78 4.13 3.81 6.21c1.86 1.9 3.97 1.78 3.97 1.78h.95s.3-.03.44-.19c.14-.14.13-.41.13-.41s-.02-1.27.58-1.45c.59-.18 1.34 1.22 2.14 1.76.6.41 1.06.32 1.06.32l2.14-.03s1.12-.07.59-.93"/></symbol><use xlink:href="#sprite-vk" width="16" height="9" y="1002"/><view id="sprite-vk-view" viewBox="0 1002 16 9"/></svg>